<svg width="20" height="20" viewBox="0 0 20 20" fill="none" xmlns="http://www.w3.org/2000/svg">
<path d="M1.75 8.68457C1.75 8.15808 1.75 7.89483 1.81786 7.6524C1.87797 7.43766 1.97675 7.23568 2.10936 7.05639C2.25906 6.85399 2.46685 6.69237 2.88244 6.36914L9.09955 1.5336C9.4216 1.28312 9.58263 1.15788 9.76043 1.10974C9.91732 1.06726 10.0827 1.06726 10.2396 1.10974C10.4174 1.15788 10.5784 1.28312 10.9004 1.5336L17.1176 6.36914C17.5331 6.69237 17.7409 6.85399 17.8906 7.05639C18.0232 7.23568 18.122 7.43766 18.1821 7.6524C18.25 7.89483 18.25 8.15808 18.25 8.68457V15.3166C18.25 16.3434 18.25 16.8567 18.0502 17.2489C17.8744 17.5939 17.5939 17.8743 17.249 18.0501C16.8568 18.2499 16.3434 18.2499 15.3167 18.2499H4.68333C3.65657 18.2499 3.14319 18.2499 2.75102 18.0501C2.40605 17.8743 2.12559 17.5939 1.94982 17.2489C1.75 16.8567 1.75 16.3434 1.75 15.3166V8.68457Z" stroke="white" stroke-width="2" stroke-linecap="round" stroke-linejoin="round"/>
</svg>
