<svg width="22" height="22" viewBox="0 0 22 22" fill="none" xmlns="http://www.w3.org/2000/svg">
<path d="M1.83337 6.41675L9.31788 11.6559C9.92396 12.0802 10.227 12.2923 10.5566 12.3744C10.8478 12.447 11.1523 12.447 11.4435 12.3744C11.7731 12.2923 12.0761 12.0802 12.6822 11.6559L20.1667 6.41675M6.23337 18.3334H15.7667C17.3069 18.3334 18.0769 18.3334 18.6652 18.0337C19.1826 17.77 19.6033 17.3493 19.867 16.8319C20.1667 16.2436 20.1667 15.4736 20.1667 13.9334V8.06675C20.1667 6.5266 20.1667 5.75653 19.867 5.16827C19.6033 4.65083 19.1826 4.23013 18.6652 3.96648C18.0769 3.66675 17.3069 3.66675 15.7667 3.66675H6.23337C4.69323 3.66675 3.92316 3.66675 3.3349 3.96648C2.81745 4.23013 2.39676 4.65083 2.13311 5.16827C1.83337 5.75653 1.83337 6.5266 1.83337 8.06675V13.9334C1.83337 15.4736 1.83337 16.2436 2.13311 16.8319C2.39676 17.3493 2.81745 17.77 3.3349 18.0337C3.92316 18.3334 4.69323 18.3334 6.23337 18.3334Z" stroke="white" stroke-width="2" stroke-linecap="round" stroke-linejoin="round"/>
</svg>
